<?xml version="1.0" encoding="UTF-8" standalone="no"?><svg version="1.1" width="700" height="300" xmlns="http://www.w3.org/2000/svg" xmlns:xlink="http://www.w3.org/1999/xlink"><defs><linearGradient id="e3" x1="0" x2="0" y1="0" y2="100%"><stop offset="0%" stop-color="red"/><stop offset="50%" stop-color="yellow"/><stop offset="100%" stop-color="blue"/></linearGradient><linearGradient id="e5" x1="0" x2="0" y1="0" y2="100%"><stop offset="0%" stop-color="blue"/><stop offset="50%" stop-color="white"/><stop offset="100%" stop-color="green"/></linearGradient></defs><rect width="100%" height="100%" fill="rgb(240,240,240)" stroke-width="1px" stroke="rgb(0,0,0)"/><g class="grid"><path d="M51 273h639M51 236.29h639M51 199.57h639M51 162.86h639M51 126.14h639M51 89.43h639M51 52.71h639M51 16h639M51 16v257M104.25 16v257M157.5 16v257M210.75 16v257M264 16v257M317.25 16v257M370.5 16v257M423.75 16v257M477 16v257M530.25 16v257M583.5 16v257M636.75 16v257M690 16v257" stroke="rgb(220,220,220)"/></g><rect x="56" width="43.25" y="174.68" height="98.32" stroke="rgb(0,0,0)" stroke-width="1px" fill="url(#e3)" id="e2"/><rect x="109.25" width="43.25" y="168.53" height="104.47" stroke="rgb(0,0,0)" stroke-width="1px" fill="url(#e5)" id="e4"/><rect x="162.5" width="43.25" y="109.29" height="163.71" stroke="rgb(0,0,0)" stroke-width="1px" fill="url(#e3)" id="e6"/><rect x="215.75" width="43.25" y="105.22" height="167.78" stroke="rgb(0,0,0)" stroke-width="1px" fill="url(#e5)" id="e7"/><rect x="269" width="43.25" y="57.33" height="215.67" stroke="rgb(0,0,0)" stroke-width="1px" fill="url(#e3)" id="e8"/><rect x="322.25" width="43.25" y="31.27" height="241.73" stroke="rgb(0,0,0)" stroke-width="1px" fill="url(#e5)" id="e9"/><rect x="375.5" width="43.25" y="197.59" height="75.41" stroke="rgb(0,0,0)" stroke-width="1px" fill="url(#e3)" id="ea"/><rect x="428.75" width="43.25" y="176" height="97" stroke="rgb(0,0,0)" stroke-width="1px" fill="url(#e5)" id="eb"/><rect x="482" width="43.25" y="56.51" height="216.49" stroke="rgb(0,0,0)" stroke-width="1px" fill="url(#e3)" id="ec"/><rect x="535.25" width="43.25" y="95.75" height="177.25" stroke="rgb(0,0,0)" stroke-width="1px" fill="url(#e5)" id="ed"/><rect x="588.5" width="43.25" y="182.85" height="90.15" stroke="rgb(0,0,0)" stroke-width="1px" fill="url(#e3)" id="ee"/><rect x="641.75" width="43.25" y="236.34" height="36.66" stroke="rgb(0,0,0)" stroke-width="1px" fill="url(#e5)" id="ef"/><path d="M51 276v-3M104.25 276v-3M157.5 276v-3M210.75 276v-3M264 276v-3M317.25 276v-3M370.5 276v-3M423.75 276v-3M477 276v-3M530.25 276v-3M583.5 276v-3M636.75 276v-3M690 276v-3" stroke="rgb(0,0,0)" fill="none"/><path stroke="rgb(0,0,0)" d="M46 273h649" stroke-width="2px"/><g font-family="Courier New" font-size="10px" fill="rgb(0,0,0)"><text x="77.62" y="286.3" text-anchor="middle">Januar</text><text x="130.88" y="286.3" text-anchor="middle">Februar</text><text x="184.12" y="286.3" text-anchor="middle">März</text><text x="237.38" y="286.3" text-anchor="middle">April</text><text x="290.62" y="286.3" text-anchor="middle">Mai</text><text x="343.88" y="286.3" text-anchor="middle">Juni</text><text x="397.12" y="286.3" text-anchor="middle">Juli</text><text x="450.38" y="286.3" text-anchor="middle">August</text><text x="503.62" y="286.3" text-anchor="middle">September</text><text x="556.88" y="286.3" text-anchor="middle">Oktober</text><text x="610.12" y="286.3" text-anchor="middle">November</text><text x="663.38" y="286.3" text-anchor="middle">Dezember</text></g><path d="M48 273h3M48 236.29h3M48 199.57h3M48 162.86h3M48 126.14h3M48 89.43h3M48 52.71h3M48 16h3" stroke="rgb(0,0,0)" fill="none"/><path stroke="rgb(0,0,0)" d="M51 11v267" stroke-width="2px"/><g font-family="Courier New" font-size="10px" fill="rgb(0,0,0)"><text x="46" y="275.65" text-anchor="end">0</text><text x="46" y="238.94" text-anchor="end">10,000</text><text x="46" y="202.22" text-anchor="end">20,000</text><text x="46" y="165.51" text-anchor="end">30,000</text><text x="46" y="128.79" text-anchor="end">40,000</text><text x="46" y="92.08" text-anchor="end">50,000</text><text x="46" y="55.36" text-anchor="end">60,000</text><text x="46" y="18.65" text-anchor="end">70,000</text></g></svg>
