<?xml version="1.0" standalone="no"?>
<!DOCTYPE svg PUBLIC "-//W3C//DTD SVG 1.1//EN" "http://www.w3.org/Graphics/SVG/1.1/DTD/svg11.dtd">
<svg width="125" height="125" version="1.1" xmlns="http://www.w3.org/2000/svg">
	<desc>https://www.hs-bochum.de</desc>
	<g id="elements" fill="black" stroke="none">
		<rect x="0" y="0" width="5" height="5" />
		<rect x="5" y="0" width="5" height="5" />
		<rect x="10" y="0" width="5" height="5" />
		<rect x="15" y="0" width="5" height="5" />
		<rect x="20" y="0" width="5" height="5" />
		<rect x="25" y="0" width="5" height="5" />
		<rect x="30" y="0" width="5" height="5" />
		<rect x="40" y="0" width="5" height="5" />
		<rect x="65" y="0" width="5" height="5" />
		<rect x="70" y="0" width="5" height="5" />
		<rect x="75" y="0" width="5" height="5" />
		<rect x="80" y="0" width="5" height="5" />
		<rect x="90" y="0" width="5" height="5" />
		<rect x="95" y="0" width="5" height="5" />
		<rect x="100" y="0" width="5" height="5" />
		<rect x="105" y="0" width="5" height="5" />
		<rect x="110" y="0" width="5" height="5" />
		<rect x="115" y="0" width="5" height="5" />
		<rect x="120" y="0" width="5" height="5" />
		<rect x="0" y="5" width="5" height="5" />
		<rect x="30" y="5" width="5" height="5" />
		<rect x="40" y="5" width="5" height="5" />
		<rect x="55" y="5" width="5" height="5" />
		<rect x="60" y="5" width="5" height="5" />
		<rect x="70" y="5" width="5" height="5" />
		<rect x="80" y="5" width="5" height="5" />
		<rect x="90" y="5" width="5" height="5" />
		<rect x="120" y="5" width="5" height="5" />
		<rect x="0" y="10" width="5" height="5" />
		<rect x="10" y="10" width="5" height="5" />
		<rect x="15" y="10" width="5" height="5" />
		<rect x="20" y="10" width="5" height="5" />
		<rect x="30" y="10" width="5" height="5" />
		<rect x="40" y="10" width="5" height="5" />
		<rect x="45" y="10" width="5" height="5" />
		<rect x="60" y="10" width="5" height="5" />
		<rect x="70" y="10" width="5" height="5" />
		<rect x="90" y="10" width="5" height="5" />
		<rect x="100" y="10" width="5" height="5" />
		<rect x="105" y="10" width="5" height="5" />
		<rect x="110" y="10" width="5" height="5" />
		<rect x="120" y="10" width="5" height="5" />
		<rect x="0" y="15" width="5" height="5" />
		<rect x="10" y="15" width="5" height="5" />
		<rect x="15" y="15" width="5" height="5" />
		<rect x="20" y="15" width="5" height="5" />
		<rect x="30" y="15" width="5" height="5" />
		<rect x="40" y="15" width="5" height="5" />
		<rect x="45" y="15" width="5" height="5" />
		<rect x="50" y="15" width="5" height="5" />
		<rect x="60" y="15" width="5" height="5" />
		<rect x="65" y="15" width="5" height="5" />
		<rect x="70" y="15" width="5" height="5" />
		<rect x="80" y="15" width="5" height="5" />
		<rect x="90" y="15" width="5" height="5" />
		<rect x="100" y="15" width="5" height="5" />
		<rect x="105" y="15" width="5" height="5" />
		<rect x="110" y="15" width="5" height="5" />
		<rect x="120" y="15" width="5" height="5" />
		<rect x="0" y="20" width="5" height="5" />
		<rect x="10" y="20" width="5" height="5" />
		<rect x="15" y="20" width="5" height="5" />
		<rect x="20" y="20" width="5" height="5" />
		<rect x="30" y="20" width="5" height="5" />
		<rect x="45" y="20" width="5" height="5" />
		<rect x="50" y="20" width="5" height="5" />
		<rect x="60" y="20" width="5" height="5" />
		<rect x="70" y="20" width="5" height="5" />
		<rect x="75" y="20" width="5" height="5" />
		<rect x="80" y="20" width="5" height="5" />
		<rect x="90" y="20" width="5" height="5" />
		<rect x="100" y="20" width="5" height="5" />
		<rect x="105" y="20" width="5" height="5" />
		<rect x="110" y="20" width="5" height="5" />
		<rect x="120" y="20" width="5" height="5" />
		<rect x="0" y="25" width="5" height="5" />
		<rect x="30" y="25" width="5" height="5" />
		<rect x="40" y="25" width="5" height="5" />
		<rect x="45" y="25" width="5" height="5" />
		<rect x="50" y="25" width="5" height="5" />
		<rect x="65" y="25" width="5" height="5" />
		<rect x="70" y="25" width="5" height="5" />
		<rect x="90" y="25" width="5" height="5" />
		<rect x="120" y="25" width="5" height="5" />
		<rect x="0" y="30" width="5" height="5" />
		<rect x="5" y="30" width="5" height="5" />
		<rect x="10" y="30" width="5" height="5" />
		<rect x="15" y="30" width="5" height="5" />
		<rect x="20" y="30" width="5" height="5" />
		<rect x="25" y="30" width="5" height="5" />
		<rect x="30" y="30" width="5" height="5" />
		<rect x="40" y="30" width="5" height="5" />
		<rect x="50" y="30" width="5" height="5" />
		<rect x="60" y="30" width="5" height="5" />
		<rect x="70" y="30" width="5" height="5" />
		<rect x="80" y="30" width="5" height="5" />
		<rect x="90" y="30" width="5" height="5" />
		<rect x="95" y="30" width="5" height="5" />
		<rect x="100" y="30" width="5" height="5" />
		<rect x="105" y="30" width="5" height="5" />
		<rect x="110" y="30" width="5" height="5" />
		<rect x="115" y="30" width="5" height="5" />
		<rect x="120" y="30" width="5" height="5" />
		<rect x="50" y="35" width="5" height="5" />
		<rect x="55" y="35" width="5" height="5" />
		<rect x="80" y="35" width="5" height="5" />
		<rect x="0" y="40" width="5" height="5" />
		<rect x="5" y="40" width="5" height="5" />
		<rect x="20" y="40" width="5" height="5" />
		<rect x="25" y="40" width="5" height="5" />
		<rect x="30" y="40" width="5" height="5" />
		<rect x="50" y="40" width="5" height="5" />
		<rect x="60" y="40" width="5" height="5" />
		<rect x="95" y="40" width="5" height="5" />
		<rect x="105" y="40" width="5" height="5" />
		<rect x="110" y="40" width="5" height="5" />
		<rect x="115" y="40" width="5" height="5" />
		<rect x="120" y="40" width="5" height="5" />
		<rect x="0" y="45" width="5" height="5" />
		<rect x="5" y="45" width="5" height="5" />
		<rect x="25" y="45" width="5" height="5" />
		<rect x="65" y="45" width="5" height="5" />
		<rect x="75" y="45" width="5" height="5" />
		<rect x="80" y="45" width="5" height="5" />
		<rect x="85" y="45" width="5" height="5" />
		<rect x="100" y="45" width="5" height="5" />
		<rect x="105" y="45" width="5" height="5" />
		<rect x="115" y="45" width="5" height="5" />
		<rect x="0" y="50" width="5" height="5" />
		<rect x="10" y="50" width="5" height="5" />
		<rect x="30" y="50" width="5" height="5" />
		<rect x="45" y="50" width="5" height="5" />
		<rect x="50" y="50" width="5" height="5" />
		<rect x="70" y="50" width="5" height="5" />
		<rect x="75" y="50" width="5" height="5" />
		<rect x="95" y="50" width="5" height="5" />
		<rect x="100" y="50" width="5" height="5" />
		<rect x="105" y="50" width="5" height="5" />
		<rect x="110" y="50" width="5" height="5" />
		<rect x="5" y="55" width="5" height="5" />
		<rect x="15" y="55" width="5" height="5" />
		<rect x="25" y="55" width="5" height="5" />
		<rect x="35" y="55" width="5" height="5" />
		<rect x="40" y="55" width="5" height="5" />
		<rect x="45" y="55" width="5" height="5" />
		<rect x="60" y="55" width="5" height="5" />
		<rect x="70" y="55" width="5" height="5" />
		<rect x="75" y="55" width="5" height="5" />
		<rect x="90" y="55" width="5" height="5" />
		<rect x="95" y="55" width="5" height="5" />
		<rect x="110" y="55" width="5" height="5" />
		<rect x="115" y="55" width="5" height="5" />
		<rect x="0" y="60" width="5" height="5" />
		<rect x="10" y="60" width="5" height="5" />
		<rect x="15" y="60" width="5" height="5" />
		<rect x="20" y="60" width="5" height="5" />
		<rect x="30" y="60" width="5" height="5" />
		<rect x="40" y="60" width="5" height="5" />
		<rect x="55" y="60" width="5" height="5" />
		<rect x="75" y="60" width="5" height="5" />
		<rect x="85" y="60" width="5" height="5" />
		<rect x="90" y="60" width="5" height="5" />
		<rect x="105" y="60" width="5" height="5" />
		<rect x="110" y="60" width="5" height="5" />
		<rect x="115" y="60" width="5" height="5" />
		<rect x="120" y="60" width="5" height="5" />
		<rect x="0" y="65" width="5" height="5" />
		<rect x="15" y="65" width="5" height="5" />
		<rect x="20" y="65" width="5" height="5" />
		<rect x="35" y="65" width="5" height="5" />
		<rect x="40" y="65" width="5" height="5" />
		<rect x="50" y="65" width="5" height="5" />
		<rect x="60" y="65" width="5" height="5" />
		<rect x="70" y="65" width="5" height="5" />
		<rect x="75" y="65" width="5" height="5" />
		<rect x="85" y="65" width="5" height="5" />
		<rect x="100" y="65" width="5" height="5" />
		<rect x="115" y="65" width="5" height="5" />
		<rect x="10" y="70" width="5" height="5" />
		<rect x="15" y="70" width="5" height="5" />
		<rect x="20" y="70" width="5" height="5" />
		<rect x="25" y="70" width="5" height="5" />
		<rect x="30" y="70" width="5" height="5" />
		<rect x="40" y="70" width="5" height="5" />
		<rect x="45" y="70" width="5" height="5" />
		<rect x="55" y="70" width="5" height="5" />
		<rect x="60" y="70" width="5" height="5" />
		<rect x="70" y="70" width="5" height="5" />
		<rect x="75" y="70" width="5" height="5" />
		<rect x="95" y="70" width="5" height="5" />
		<rect x="100" y="70" width="5" height="5" />
		<rect x="105" y="70" width="5" height="5" />
		<rect x="110" y="70" width="5" height="5" />
		<rect x="15" y="75" width="5" height="5" />
		<rect x="25" y="75" width="5" height="5" />
		<rect x="35" y="75" width="5" height="5" />
		<rect x="40" y="75" width="5" height="5" />
		<rect x="45" y="75" width="5" height="5" />
		<rect x="50" y="75" width="5" height="5" />
		<rect x="55" y="75" width="5" height="5" />
		<rect x="70" y="75" width="5" height="5" />
		<rect x="80" y="75" width="5" height="5" />
		<rect x="90" y="75" width="5" height="5" />
		<rect x="95" y="75" width="5" height="5" />
		<rect x="100" y="75" width="5" height="5" />
		<rect x="110" y="75" width="5" height="5" />
		<rect x="115" y="75" width="5" height="5" />
		<rect x="0" y="80" width="5" height="5" />
		<rect x="5" y="80" width="5" height="5" />
		<rect x="25" y="80" width="5" height="5" />
		<rect x="30" y="80" width="5" height="5" />
		<rect x="35" y="80" width="5" height="5" />
		<rect x="40" y="80" width="5" height="5" />
		<rect x="50" y="80" width="5" height="5" />
		<rect x="60" y="80" width="5" height="5" />
		<rect x="70" y="80" width="5" height="5" />
		<rect x="80" y="80" width="5" height="5" />
		<rect x="85" y="80" width="5" height="5" />
		<rect x="90" y="80" width="5" height="5" />
		<rect x="95" y="80" width="5" height="5" />
		<rect x="100" y="80" width="5" height="5" />
		<rect x="105" y="80" width="5" height="5" />
		<rect x="110" y="80" width="5" height="5" />
		<rect x="40" y="85" width="5" height="5" />
		<rect x="70" y="85" width="5" height="5" />
		<rect x="75" y="85" width="5" height="5" />
		<rect x="80" y="85" width="5" height="5" />
		<rect x="100" y="85" width="5" height="5" />
		<rect x="0" y="90" width="5" height="5" />
		<rect x="5" y="90" width="5" height="5" />
		<rect x="10" y="90" width="5" height="5" />
		<rect x="15" y="90" width="5" height="5" />
		<rect x="20" y="90" width="5" height="5" />
		<rect x="25" y="90" width="5" height="5" />
		<rect x="30" y="90" width="5" height="5" />
		<rect x="50" y="90" width="5" height="5" />
		<rect x="65" y="90" width="5" height="5" />
		<rect x="70" y="90" width="5" height="5" />
		<rect x="80" y="90" width="5" height="5" />
		<rect x="90" y="90" width="5" height="5" />
		<rect x="100" y="90" width="5" height="5" />
		<rect x="0" y="95" width="5" height="5" />
		<rect x="30" y="95" width="5" height="5" />
		<rect x="40" y="95" width="5" height="5" />
		<rect x="45" y="95" width="5" height="5" />
		<rect x="60" y="95" width="5" height="5" />
		<rect x="80" y="95" width="5" height="5" />
		<rect x="100" y="95" width="5" height="5" />
		<rect x="105" y="95" width="5" height="5" />
		<rect x="110" y="95" width="5" height="5" />
		<rect x="115" y="95" width="5" height="5" />
		<rect x="0" y="100" width="5" height="5" />
		<rect x="10" y="100" width="5" height="5" />
		<rect x="15" y="100" width="5" height="5" />
		<rect x="20" y="100" width="5" height="5" />
		<rect x="30" y="100" width="5" height="5" />
		<rect x="40" y="100" width="5" height="5" />
		<rect x="50" y="100" width="5" height="5" />
		<rect x="55" y="100" width="5" height="5" />
		<rect x="60" y="100" width="5" height="5" />
		<rect x="80" y="100" width="5" height="5" />
		<rect x="85" y="100" width="5" height="5" />
		<rect x="90" y="100" width="5" height="5" />
		<rect x="95" y="100" width="5" height="5" />
		<rect x="100" y="100" width="5" height="5" />
		<rect x="105" y="100" width="5" height="5" />
		<rect x="110" y="100" width="5" height="5" />
		<rect x="0" y="105" width="5" height="5" />
		<rect x="10" y="105" width="5" height="5" />
		<rect x="15" y="105" width="5" height="5" />
		<rect x="20" y="105" width="5" height="5" />
		<rect x="30" y="105" width="5" height="5" />
		<rect x="45" y="105" width="5" height="5" />
		<rect x="60" y="105" width="5" height="5" />
		<rect x="65" y="105" width="5" height="5" />
		<rect x="70" y="105" width="5" height="5" />
		<rect x="90" y="105" width="5" height="5" />
		<rect x="95" y="105" width="5" height="5" />
		<rect x="110" y="105" width="5" height="5" />
		<rect x="115" y="105" width="5" height="5" />
		<rect x="120" y="105" width="5" height="5" />
		<rect x="0" y="110" width="5" height="5" />
		<rect x="10" y="110" width="5" height="5" />
		<rect x="15" y="110" width="5" height="5" />
		<rect x="20" y="110" width="5" height="5" />
		<rect x="30" y="110" width="5" height="5" />
		<rect x="45" y="110" width="5" height="5" />
		<rect x="50" y="110" width="5" height="5" />
		<rect x="55" y="110" width="5" height="5" />
		<rect x="60" y="110" width="5" height="5" />
		<rect x="70" y="110" width="5" height="5" />
		<rect x="75" y="110" width="5" height="5" />
		<rect x="85" y="110" width="5" height="5" />
		<rect x="90" y="110" width="5" height="5" />
		<rect x="105" y="110" width="5" height="5" />
		<rect x="115" y="110" width="5" height="5" />
		<rect x="0" y="115" width="5" height="5" />
		<rect x="30" y="115" width="5" height="5" />
		<rect x="40" y="115" width="5" height="5" />
		<rect x="45" y="115" width="5" height="5" />
		<rect x="55" y="115" width="5" height="5" />
		<rect x="60" y="115" width="5" height="5" />
		<rect x="75" y="115" width="5" height="5" />
		<rect x="90" y="115" width="5" height="5" />
		<rect x="95" y="115" width="5" height="5" />
		<rect x="100" y="115" width="5" height="5" />
		<rect x="105" y="115" width="5" height="5" />
		<rect x="110" y="115" width="5" height="5" />
		<rect x="115" y="115" width="5" height="5" />
		<rect x="0" y="120" width="5" height="5" />
		<rect x="5" y="120" width="5" height="5" />
		<rect x="10" y="120" width="5" height="5" />
		<rect x="15" y="120" width="5" height="5" />
		<rect x="20" y="120" width="5" height="5" />
		<rect x="25" y="120" width="5" height="5" />
		<rect x="30" y="120" width="5" height="5" />
		<rect x="40" y="120" width="5" height="5" />
		<rect x="60" y="120" width="5" height="5" />
		<rect x="75" y="120" width="5" height="5" />
		<rect x="110" y="120" width="5" height="5" />
		<rect x="115" y="120" width="5" height="5" />
		<rect x="120" y="120" width="5" height="5" />
	</g>
</svg>
